<svg fill="#496db3" xmlns="http://www.w3.org/2000/svg" xmlns:xlink="http://www.w3.org/1999/xlink" version="1.1" x="0px" y="0px" viewBox="0 0 100 100" style="enable-background:new 0 0 100 100;" xml:space="preserve"><path d="M65.69,35.76L44.01,57.43l-9.7-9.7c-1.25-1.25-3.29-1.25-4.54,0c-1.25,1.25-1.25,3.29,0,4.54l11.97,11.97  c0.63,0.63,1.45,0.94,2.27,0.94s1.64-0.31,2.27-0.94L70.23,40.3c1.25-1.25,1.25-3.29,0-4.54C68.97,34.5,66.94,34.5,65.69,35.76z"></path><path d="M50,10c-22.06,0-40,17.94-40,40s17.94,40,40,40s40-17.94,40-40S72.06,10,50,10z M50,83.58c-18.51,0-33.58-15.06-33.58-33.58  S31.49,16.42,50,16.42S83.58,31.48,83.58,50S68.51,83.58,50,83.58z"></path></svg>