<?xml version="1.0" encoding="utf-8"?>
<!-- Generator: Adobe Illustrator 26.2.1, SVG Export Plug-In . SVG Version: 6.00 Build 0)  -->
<svg fill="#d9e3f2" version="1.1" id="Layer_1" xmlns="http://www.w3.org/2000/svg" xmlns:xlink="http://www.w3.org/1999/xlink" x="0px" y="0px"
	 viewBox="0 0 64 64" style="enable-background:new 0 0 64 64;" xml:space="preserve">
<g>
	<g transform="translate(-199.000000, -140.000000)">
		<g transform="translate(199.000000, 140.000000)">
			<path d="M31.2,13.9c0.5-0.3,1.1-0.3,1.6,0l0,0l23.7,12.9c1.1,0.6,1.1,2.1,0,2.7l0,0l-3.3,1.8l0,0.1v15.5c0,0.9-0.7,1.6-1.6,1.6
				c-0.8,0-1.5-0.6-1.6-1.3l0-0.2l0-13.9l-3.1,1.7l0,11.2c0,0.5-0.3,1-0.8,1.3c-8.8,4.2-19.3,4.2-28.1,0c-0.4-0.2-0.7-0.6-0.8-1.1
				l0-0.2l0-11.2l-9.6-5.2c-1-0.6-1.1-1.9-0.2-2.6l0.2-0.1L31.2,13.9z M43.9,36.3l-11.1,6c-0.5,0.3-1.1,0.3-1.6,0l0,0l-11.2-6l0,8.7
				l0.7,0.3c7.2,2.9,15.3,2.9,22.5,0l0.7-0.3L43.9,36.3z M32,17L11.5,28.1L32,39.2l14.7-8l-12.2-4.6c-0.8-0.3-1.2-1.1-1-1.8l0.1-0.2
				c0.3-0.7,1.1-1.1,1.9-0.9l0.2,0.1l14.7,5.5l2.1-1.1L32,17z"/>
		</g>
	</g>
</g>
</svg>
