<svg fill="#d9e3f2" xmlns="http://www.w3.org/2000/svg" viewBox="0 0 64 64" x="0px" y="0px"><title>people, social media, community, forum, team, group</title><g><path d="M38.45,31.63a12.16,12.16,0,1,0-12.9,0,11.1,11.1,0,0,0-6.24,10V53.31a1.5,1.5,0,0,0,1.5,1.5H43.19a1.5,1.5,0,0,0,1.5-1.5V41.59A11.1,11.1,0,0,0,38.45,31.63ZM22.84,21.34A9.16,9.16,0,1,1,32,30.5,9.17,9.17,0,0,1,22.84,21.34ZM41.69,51.81H22.31V41.59A8.1,8.1,0,0,1,30.4,33.5h3.2a8.1,8.1,0,0,1,8.09,8.09ZM61.2,44.57v8.31a1.5,1.5,0,0,1-1.5,1.5H50.05a1.5,1.5,0,0,1,0-3H58.2V44.57a8.1,8.1,0,0,0-8.09-8.09H49.05a1.5,1.5,0,0,1-1.5-1.5v0a1,1,0,0,1,0-.3,1.48,1.48,0,0,1,1.71-1.25,7,7,0,0,0,1,.07,7.45,7.45,0,0,0,0-14.9,7,7,0,0,0-1,.08,1.5,1.5,0,0,1-.46-3,9.26,9.26,0,0,1,1.49-.12A10.44,10.44,0,0,1,55.66,35,11.07,11.07,0,0,1,61.2,44.57ZM16.45,35v0a1.5,1.5,0,0,1-1.5,1.5H13.89A8.1,8.1,0,0,0,5.8,44.57v6.81H14a1.5,1.5,0,0,1,0,3H4.3a1.5,1.5,0,0,1-1.5-1.5V44.57A11.07,11.07,0,0,1,8.34,35a10.44,10.44,0,0,1,5.35-19.41,9.26,9.26,0,0,1,1.49.12,1.5,1.5,0,0,1-.46,3,7,7,0,0,0-1-.08,7.45,7.45,0,0,0,0,14.9,7,7,0,0,0,1-.07,1.48,1.48,0,0,1,1.71,1.25A1,1,0,0,1,16.45,35Z"></path></g></svg>