<svg fill="white" xmlns="http://www.w3.org/2000/svg" xmlns:xlink="http://www.w3.org/1999/xlink" version="1.1" x="0px" y="0px" viewBox="0 0 32 32" enable-background="new 0 0 32 32" xml:space="preserve"><g><path d="M15.1914063,3.0454102c-0.2246094-0.2246094-0.5415039-0.3320313-0.855957-0.2817383   c-0.3134766,0.046875-0.5864258,0.2402344-0.7348633,0.5209961L7.3076172,15.1723633l-3.4301758,3.4296875   c-1.0551758,1.0561523-1.3779297,2.5556641-1.0048828,3.9003906c-1.2348633,1.5683594-1.1469727,3.8452148,0.2983398,5.2924805   C3.9511719,28.5742188,4.9755859,28.9638672,6,28.9638672c0.875,0,1.7402344-0.3022461,2.4628906-0.8710938   c0.3510742,0.0976563,0.7094727,0.1640625,1.0717773,0.1640625c0.7016602-0.0004883,1.3979492-0.1972656,2.0209961-0.5629883   l2.5761719,2.5751953c0.4868164,0.4873047,1.1269531,0.7304688,1.7670898,0.7304688s1.2807617-0.2431641,1.7680664-0.7304688   c0.9746094-0.9746094,0.9746094-2.5605469,0-3.5351563l-2.4750977-2.4750977l0.6010742-0.6010742l11.8876953-6.2939453   c0.2802734-0.1484375,0.4736328-0.4213867,0.5214844-0.7353516c0.046875-0.3134766-0.0576172-0.6313477-0.2822266-0.8554688   L15.1914063,3.0454102z M4.5854492,26.3803711c-0.5209961-0.5214844-0.6860352-1.2592773-0.5107422-1.925293l2.4355469,2.4355469   C5.8447266,27.065918,5.1069336,26.9013672,4.5854492,26.3803711z M8.1210938,25.6733398l-2.8291016-2.8291016   c-0.7792969-0.7792969-0.7792969-2.0483398,0-2.828125l2.8291016-2.8291016l5.6572266,5.6572266l-2.8291016,2.8286133   C10.1699219,26.453125,8.9013672,26.4536133,8.1210938,25.6733398z M16.2529297,28.1479492   c0.1254883,0.1254883,0.1445313,0.2753906,0.1445313,0.3535156s-0.019043,0.2280273-0.144043,0.3530273   c-0.1914063,0.1904297-0.5151367,0.1928711-0.7075195,0.0004883l-2.4755859-2.4746094l0.7075195-0.7075195L16.2529297,28.1479492z    M15.3769531,21.6152344l-6.0263672-6.0273438l5.3842773-10.1708984l10.8139648,10.8129883L15.3769531,21.6152344z M19,4.0004883   v-2c0-0.5522461,0.4472656-1,1-1s1,0.4477539,1,1v2c0,0.5522461-0.4472656,1-1,1S19,4.5527344,19,4.0004883z M30,11   c0,0.5522461-0.4472656,1-1,1h-2c-0.5527344,0-1-0.4477539-1-1s0.4472656-1,1-1h2C29.5527344,10,30,10.4477539,30,11z    M23.2929688,7.7070313c-0.390625-0.390625-0.390625-1.0234375,0-1.4140625l2-2c0.390625-0.390625,1.0234375-0.390625,1.4140625,0   s0.390625,1.0234375,0,1.4140625l-2,2C24.5117188,7.9023438,24.2558594,8,24,8S23.4882813,7.9023438,23.2929688,7.7070313z"></path></g></svg>