<svg fill="#fff" xmlns="http://www.w3.org/2000/svg" xmlns:xlink="http://www.w3.org/1999/xlink" version="1.1" x="0px" y="0px" viewBox="0 0 64 64" style="enable-background:new 0 0 64 64;" xml:space="preserve"><g><g><g><path d="M17.8,57.02c-1.28,0-2.32-1.04-2.32-2.32V10.47c0-1.11,0.79-2.07,1.88-2.28l42.37-8.15c0.68-0.13,1.38,0.05,1.91,0.49     c0.53,0.44,0.84,1.1,0.84,1.79v48.93c0,1.28-1.04,2.32-2.32,2.32c-1.28,0-2.32-1.04-2.32-2.32V5.13l-37.73,7.26V54.7     C20.12,55.98,19.08,57.02,17.8,57.02z"></path></g><g><path d="M10.82,64c-5.13,0-9.3-4.17-9.3-9.3c0-5.13,4.17-9.3,9.3-9.3c5.13,0,9.3,4.17,9.3,9.3C20.12,59.83,15.94,64,10.82,64z      M10.82,50.04c-2.57,0-4.66,2.09-4.66,4.66c0,2.57,2.09,4.66,4.66,4.66s4.66-2.09,4.66-4.66C15.48,52.13,13.39,50.04,10.82,50.04     z"></path></g><g><path d="M53.18,60.55c-5.13,0-9.3-4.17-9.3-9.3c0-5.13,4.17-9.3,9.3-9.3c5.13,0,9.3,4.17,9.3,9.3     C62.48,56.37,58.31,60.55,53.18,60.55z M53.18,46.58c-2.57,0-4.66,2.09-4.66,4.66c0,2.57,2.09,4.66,4.66,4.66     c2.57,0,4.66-2.09,4.66-4.66C57.85,48.68,55.75,46.58,53.18,46.58z"></path></g></g><g><path d="M17.79,23.78c-1.09,0-2.06-0.77-2.27-1.88c-0.24-1.26,0.58-2.47,1.84-2.71l42.37-8.12c1.26-0.24,2.47,0.58,2.71,1.84    c0.24,1.26-0.58,2.47-1.84,2.71l-42.37,8.12C18.09,23.77,17.94,23.78,17.79,23.78z"></path></g></g></svg>