<?xml version="1.0" encoding="utf-8"?>
<!-- Generator: Adobe Illustrator 26.2.1, SVG Export Plug-In . SVG Version: 6.00 Build 0)  -->
<svg fill="#d9e3f2" version="1.1" id="Layer_1" xmlns="http://www.w3.org/2000/svg" xmlns:xlink="http://www.w3.org/1999/xlink" x="0px" y="0px"
	 viewBox="0 0 64 64" style="enable-background:new 0 0 64 64;" xml:space="preserve">
<g transform="translate(0,-952.36218)">
	<path d="M51.9,960.2c-0.1,0-0.1,0-0.2,0l-29.1,7.5c-0.7,0.2-1.1,0.8-1.1,1.5v26.5c-1.2-0.8-2.5-1.4-4-1.4c-3.9,0-7,3.2-7,7
		s3.2,7,7,7s7-3.2,7-7v-23l26.1-6.8v18c-1.2-0.8-2.5-1.4-4-1.4c-3.9,0-7,3.2-7,7s3.2,7,7,7s7-3.2,7-7v-33.7c0-0.8-0.7-1.5-1.5-1.5
		C52,960.2,52,960.2,51.9,960.2z M50.6,963.7v4.9l-26.1,6.8v-4.9L50.6,963.7z M46.6,991.4c2.1,0,3.8,1.6,4,3.7c0,0,0,0.1,0,0.1v0.2
		c0,2.2-1.8,4-4,4c-2.2,0-4-1.8-4-4C42.6,993.2,44.3,991.4,46.6,991.4z M17.4,997.4c2.1,0,3.8,1.6,4,3.7c0,0,0,0.1,0,0.1v0.2
		c0,2.2-1.8,4-4,4s-4-1.8-4-4C13.4,999.2,15.2,997.4,17.4,997.4z"/>
</g>
</svg>
