<?xml version="1.0" encoding="utf-8"?>
<!-- Generator: Adobe Illustrator 26.2.1, SVG Export Plug-In . SVG Version: 6.00 Build 0)  -->
<svg fill="#d9e3f2" version="1.1" id="Layer_1" xmlns="http://www.w3.org/2000/svg" xmlns:xlink="http://www.w3.org/1999/xlink" x="0px" y="0px"
	 viewBox="0 0 64 64" style="enable-background:new 0 0 64 64;" xml:space="preserve">
<g>
	<g>
		<path d="M43.6,30.8c5.2-0.6,9-8.7,9-19.3c0-0.8-0.6-1.4-1.4-1.4h-6.7V8.9c0-0.8-0.6-1.4-1.4-1.4H21c-0.8,0-1.4,0.6-1.4,1.4V10
			h-6.7c-0.8,0-1.4,0.6-1.4,1.4c0,10.6,3.8,18.8,9,19.3c1.4,4.2,4.4,7.4,8.2,8.6c0,0.1,0,0.2,0,0.2c0,4.4-4.3,8-9.6,8
			c-0.8,0-1.4,0.6-1.4,1.4v6c0,0.8,0.6,1.4,1.4,1.4h13h12.9c0.8,0,1.4-0.6,1.4-1.4v-6c0-0.8-0.6-1.4-1.4-1.4c-5.3,0-9.6-3.6-9.6-8
			c0-0.1,0-0.2,0-0.2C39.1,38.2,42.2,35,43.6,30.8z M49.7,12.9c-0.2,7.7-2.8,13.4-5.4,14.8c0.1-0.6,0.1-1.2,0.1-1.9
			c0-0.1,0-0.1,0-0.2c0-0.1,0-0.1,0-0.2V12.8L49.7,12.9L49.7,12.9z M14.3,12.9h5.3v12.4c0,0.1,0,0.1,0,0.2c0,0.1,0,0.1,0,0.2
			c0,0.6,0.1,1.3,0.1,1.9C17.1,26.2,14.5,20.6,14.3,12.9z M43.6,50.4v3.4H32H20.4v-3.3c6-0.6,10.8-5.1,10.9-10.5c0.2,0,0.4,0,0.6,0
			c0.2,0,0.4,0,0.6,0C32.7,45.4,37.5,49.9,43.6,50.4z M32,37.1c-5.3,0-9.6-5.1-9.6-11.4c0-0.1,0-0.1,0-0.2c0-0.1,0-0.1,0-0.2v-15
			h19.2v15c0,0.1,0,0.1,0,0.2c0,0.1,0,0.1,0,0.2C41.6,32,37.3,37.1,32,37.1z"/>
	</g>
</g>
</svg>
