<svg fill="#fff" xmlns="http://www.w3.org/2000/svg" xmlns:xlink="http://www.w3.org/1999/xlink" version="1.1" x="0px" y="0px" viewBox="0 0 512 512" style="enable-background:new 0 0 512 512;" xml:space="preserve"><g><path d="M455.727,78.54H393.66l5.682-33.781c0.488-2.901-0.326-5.871-2.227-8.117c-1.899-2.247-4.692-3.542-7.635-3.542H122.52   c-2.942,0-5.735,1.295-7.635,3.542c-1.9,2.246-2.715,5.215-2.227,8.117l5.682,33.781H56.273c-10.726,0-20.384,5.515-25.836,14.752   c-5.451,9.237-5.611,20.358-0.428,29.748l48.324,87.526c14.076,25.496,40.912,41.333,70.035,41.333h1.207   c6.708,17.967,17.96,34.12,32.86,46.758c7.952,6.746,16.738,12.306,26.065,16.608L181.257,458.9h-24.07c-5.522,0-10,4.478-10,10   s4.478,10,10,10h198.801c5.522,0,10-4.478,10-10s-4.478-10-10-10h-29.749l-26.898-141.808   c10.882-4.503,21.098-10.694,30.223-18.435c14.909-12.646,26.166-28.811,32.867-46.758h1.2c29.123,0,55.96-15.838,70.036-41.333   l48.322-87.526c5.185-9.39,5.024-20.51-0.427-29.748C476.11,84.055,466.452,78.54,455.727,78.54z M95.842,200.899l-48.323-87.526   c-2.49-4.511-0.729-8.437,0.143-9.916c0.873-1.479,3.459-4.917,8.612-4.917h65.431l22.18,131.867   c0.072,0.449,0.167,0.893,0.244,1.34C123.947,230.32,105.712,218.777,95.842,200.899z M305.882,458.9H201.614l25.953-136.823   c9.237,2.401,18.786,3.663,28.433,3.663c8.155,0,16.24-0.9,24.126-2.625L305.882,458.9z M256,305.74   c-45.539,0-85.247-33.737-92.379-78.563L134.342,53.1h243.316l-29.294,174.165C341.247,272.003,301.539,305.74,256,305.74z    M464.481,113.373l-48.323,87.526c-9.87,17.877-28.104,29.42-48.285,30.848c0.072-0.419,0.162-0.833,0.229-1.253L390.296,98.54   h65.431c5.153,0,7.739,3.439,8.612,4.917C465.211,104.936,466.972,108.862,464.481,113.373z"></path></g></svg>