<svg fill="#fff" xmlns="http://www.w3.org/2000/svg" xmlns:xlink="http://www.w3.org/1999/xlink" version="1.1" x="0px" y="0px" viewBox="0 0 100 100" enable-background="new 0 0 100 100" xml:space="preserve"><g><path fill="#fff" d="M89.967,23.769l-1.068-1.083c-0.731-0.741-1.505-0.896-2.025-0.896h-0.002c-1.18,0-1.996,0.769-2.146,0.922   L72.291,35.293l-0.869-0.879L83.877,21.81c1.523-1.544,0.85-3.346,0.025-4.181l-1.068-1.082c-0.731-0.74-1.503-0.896-2.022-0.896   c-0.002,0-0.002,0-0.003,0c-1.18,0-1.998,0.768-2.15,0.922L66.226,29.155l-0.87-0.879l12.456-12.604   c1.523-1.542,0.852-3.345,0.026-4.181l-1.068-1.083c-0.73-0.739-1.504-0.895-2.024-0.896c-1.182,0-2,0.768-2.152,0.922   l-15.068,15.25c-1.041,1.053-2.201,2.228-2.329,2.358c-3.494,3.534-4.506,8.815-2.58,13.455c0.285,0.688,1.074,1.015,1.765,0.729   c0.688-0.286,1.015-1.076,0.729-1.764c-1.509-3.633-0.721-7.763,2.01-10.526c0.132-0.134,1.289-1.306,2.325-2.354l15.068-15.25   c0.009-0.009,0.164-0.117,0.216-0.124c0.012,0.005,0.057,0.03,0.121,0.096l1.046,1.059c0.19,0.216,0.13,0.277-0.002,0.411   L62.498,27.328c-0.521,0.526-0.521,1.373,0,1.898l2.768,2.798c0.508,0.514,1.414,0.514,1.919,0l13.393-13.551   c0.009-0.009,0.163-0.117,0.215-0.124c0.012,0.005,0.057,0.03,0.122,0.096l1.047,1.059c0.188,0.214,0.132,0.271-0.004,0.411   L68.566,33.466c-0.52,0.525-0.521,1.371-0.002,1.896l2.766,2.799c0.254,0.257,0.6,0.401,0.961,0.401   c0.36,0,0.706-0.145,0.959-0.401l13.395-13.555c0.01-0.009,0.161-0.115,0.211-0.121c0.012,0.004,0.057,0.029,0.124,0.097   l1.046,1.059c0.189,0.214,0.132,0.271-0.004,0.411L70.626,43.661c-2.699,2.732-6.732,3.533-10.292,2.055l-0.905-0.513   c-0.53-0.299-1.196-0.208-1.625,0.226L16.751,86.976l-2.466-2.496l35.078-35.979c0.513-0.526,0.511-1.364-0.002-1.888   l-35.805-36.48c-0.29-0.294-0.693-0.438-1.109-0.396c-0.411,0.045-0.778,0.275-0.998,0.625c-0.072,0.116-7.088,11.638,3.751,22.634   l20.612,20.906l1.921-1.896L17.122,31.1c-7.182-7.285-5.444-14.583-4.162-17.72l33.55,34.182L11.427,83.543   c-0.514,0.527-0.511,1.368,0.006,1.892l4.358,4.41c0.253,0.256,0.6,0.4,0.96,0.4s0.707-0.145,0.96-0.4L58.998,48.06l0.075,0.042   c0.044,0.025,0.091,0.048,0.138,0.068c4.602,1.954,9.836,0.926,13.338-2.617l17.394-17.604   C91.466,26.405,90.792,24.603,89.967,23.769z"></path><path fill="#fff" d="M56.598,54.626c-0.525-0.53-1.379-0.535-1.91-0.012c-0.529,0.523-0.534,1.379-0.012,1.908L82.69,84.892   l-2.297,2.326L52.402,58.872c-0.525-0.528-1.378-0.534-1.91-0.012c-0.53,0.524-0.535,1.379-0.012,1.91l28.952,29.316   c0.255,0.256,0.6,0.401,0.961,0.401s0.706-0.146,0.961-0.401l4.193-4.246c0.519-0.526,0.519-1.372,0-1.896L56.598,54.626z"></path></g></svg>