<?xml version="1.0" encoding="utf-8"?>
<!-- Generator: Adobe Illustrator 26.2.1, SVG Export Plug-In . SVG Version: 6.00 Build 0)  -->
<svg fill="#d9e3f2" version="1.1" id="Layer_1" xmlns="http://www.w3.org/2000/svg" xmlns:xlink="http://www.w3.org/1999/xlink" x="0px" y="0px"
	 viewBox="0 0 64 64" style="enable-background:new 0 0 64 64;" xml:space="preserve">
<g>
	<path d="M56.1,16.6c-1.5-1.5-3.7-2-6.2-1.7c-2.6,0.4-5.3,1.8-7.6,4.1c-2.3,2.3-3.7,5.1-4.1,7.6c-0.4,2.4,0.2,4.7,1.7,6.2l0,0
		c1.5,1.5,3.7,2,6.2,1.7c2.6-0.4,5.3-1.8,7.6-4.1s3.7-5.1,4.1-7.6C58.1,20.4,57.6,18.2,56.1,16.6z M49.4,11.8
		c3.4-0.5,6.6,0.3,8.9,2.6c2.3,2.3,3.1,5.5,2.6,8.9c-0.5,3.2-2.2,6.6-5,9.5c-2.8,2.8-6.2,4.5-9.5,5c-2.8,0.4-5.5-0.1-7.7-1.5
		L18.6,56.4c-0.6,0.6-1.7,0.6-2.3,0c-0.6-0.6-0.6-1.7,0-2.3l20.3-20.3c-1.5-2.1-2-4.8-1.5-7.7c0.5-3.2,2.2-6.6,5-9.5
		C42.8,14,46.2,12.3,49.4,11.8L49.4,11.8z"/>
</g>
<g>
	<path d="M17,9.8c-0.6-0.6-0.6-1.7,0-2.3c0.6-0.6,1.7-0.6,2.3,0l10,10c1.6,1.6,2.3,3.6,2.3,5.6s-0.8,4.1-2.3,5.6L28.1,30l24.2,24.2
		c0.6,0.6,0.6,1.7,0,2.3c-0.6,0.6-1.7,0.6-2.3,0L25.8,32.3l-1.2,1.2c-1.6,1.6-3.6,2.3-5.6,2.3c-2,0-4.1-0.8-5.6-2.3l-10-10
		c-0.6-0.6-0.6-1.7,0-2.3c0.6-0.6,1.7-0.6,2.3,0l10,10c0.9,0.9,2.1,1.4,3.4,1.4c1.2,0,2.4-0.5,3.4-1.4l1.2-1.2L10.2,16.6
		c-0.6-0.6-0.6-1.7,0-2.3c0.6-0.6,1.7-0.6,2.3,0l13.3,13.3l1.2-1.2c0.9-0.9,1.4-2.1,1.4-3.4c0-1.2-0.5-2.4-1.4-3.4L17,9.8L17,9.8z"
		/>
</g>
</svg>
